# xmcd CD database file
#
# Track frame offsets:
#	150
#	23653
#	42170
#	61321
#	79653
#	101723
#	117653
#	138391
#	154387
#	169682
#	186176
#	201835
#
# Disc length: 2955 seconds
#
# Revision: 2
# Processed by: cddbd v1.5.2PL0 Copyright (c) Steve Scherf et al.
# Submitted via: CDex 1.70beta2
#
DISCID=a30b890c
DTITLE=JUNIOR and JORGE - Camino sin regreso
DYEAR=2002
DGENRE=Bachata
TTITLE0=Camino sin regreso
TTITLE1=Olvídate de él
TTITLE2=Cuando te hayas ido
TTITLE3=Dos como ella
TTITLE4=Nunca niegues
TTITLE5=Mi cómplice
TTITLE6=Amor de mentira
TTITLE7=Cuando puedas
TTITLE8=Amigo
TTITLE9=Yo no te voy a perder
TTITLE10=No mientas
TTITLE11=Mentira
EXTD=YEAR: 2002
EXTT0=
EXTT1=
EXTT2=
EXTT3=
EXTT4=
EXTT5=
EXTT6=
EXTT7=
EXTT8=
EXTT9=
EXTT10=
EXTT11=
PLAYORDER=
